<svg width="285" height="287" viewBox="0 0 285 287" fill="none" xmlns="http://www.w3.org/2000/svg">
<path d="M267.482 155.577L259.24 151.559L258.946 152.163L258.742 152.804L267.482 155.577ZM143.993 74.2556L137.048 80.2425L143.993 88.2995L150.939 80.2425L143.993 74.2556ZM21.0421 156.658L29.4874 153.086L29.3628 152.792L29.2179 152.506L21.0421 156.658ZM75.2703 226.226L81.7557 219.743L81.7557 219.743L75.2703 226.226ZM143.025 274L138.684 282.076L143.275 284.545L147.745 281.862L143.025 274ZM214.975 226.226L208.821 219.428L208.821 219.428L214.975 226.226ZM275.725 159.595C281.128 148.511 284.156 136.061 284.156 122.93H265.817C265.817 133.217 263.45 142.923 259.24 151.559L275.725 159.595ZM284.156 122.93C284.156 76.6885 246.686 39.1945 200.456 39.1945V57.5335C236.55 57.5335 265.817 86.8086 265.817 122.93H284.156ZM200.456 39.1945C175.107 39.1945 152.383 50.4795 137.048 68.2686L150.939 80.2425C162.939 66.3213 180.667 57.5335 200.456 57.5335V39.1945ZM150.939 68.2686C135.604 50.4796 112.88 39.1945 87.5306 39.1945V57.5336C107.319 57.5336 125.048 66.3213 137.048 80.2425L150.939 68.2686ZM87.5306 39.1945C41.3002 39.1945 3.83047 76.6885 3.83047 122.93H22.1695C22.1695 86.8086 51.4368 57.5336 87.5306 57.5336V39.1945ZM3.83047 122.93C3.83047 136.544 7.0849 149.424 12.8662 160.81L29.2179 152.506C24.7131 143.635 22.1695 133.593 22.1695 122.93H3.83047ZM81.7557 219.743C72.5537 210.537 61.2631 198.221 51.3059 185.88C41.1865 173.337 33.0428 161.493 29.4874 153.086L12.5967 160.23C17.2211 171.164 26.7859 184.694 37.0329 197.395C47.4421 210.297 59.1757 223.094 68.7849 232.708L81.7557 219.743ZM147.367 265.923C133.138 258.274 100.389 238.386 81.7557 219.743L68.7849 232.708C89.3848 253.318 124.09 274.231 138.684 282.076L147.367 265.923ZM208.821 219.428C202.675 224.991 190.673 233.334 177.006 242.17C163.53 250.883 149.034 259.698 138.306 266.138L147.745 281.862C158.527 275.389 173.229 266.451 186.963 257.571C200.506 248.815 213.724 239.727 221.129 233.024L208.821 219.428ZM258.742 152.804C254.928 164.828 245.514 178.865 235.037 191.625C224.714 204.196 214.091 214.658 208.821 219.428L221.129 233.024C226.971 227.735 238.238 216.625 249.21 203.263C260.026 190.09 271.311 173.833 276.223 158.35L258.742 152.804Z" fill="white"/>
<path d="M116 271.5C102 263.5 84.5 234 63 212L130.5 257L141.5 271.5C140 275.5 137.5 277 132.5 277C127.5 277 120.002 273.787 116 271.5Z" fill="#F83B3B" stroke="white" stroke-width="20"/>
<mask id="path-3-outside-1_22_76" maskUnits="userSpaceOnUse" x="193.093" y="2.84136" width="96.6521" height="111.594" fill="black">
<rect fill="white" x="193.093" y="2.84136" width="96.6521" height="111.594"/>
<path fill-rule="evenodd" clip-rule="evenodd" d="M248.134 30.4311C251.595 26.9468 254.562 25.3091 256.365 26.1777C257.617 26.7809 258.278 29.9977 258.055 34.7844C260.407 32.8891 262.393 32.1204 263.725 32.7621C266.702 34.1962 266.249 50.8726 258.101 67.7879C249.952 84.7032 240.355 96.9748 234.217 94.0178C232.542 93.2108 231.667 91.5308 231.446 89.1705C229.327 90.4058 227.368 90.7191 225.668 89.9002C223.927 89.0613 223.023 87.3072 222.802 84.8405C220.652 86.1632 218.666 86.5268 216.95 85.7001C210.812 82.7432 215.418 68.0677 223.567 51.1524C231.715 34.2371 242.29 22.4366 246.458 24.4444C247.453 24.9237 248.065 27.1061 248.134 30.4311Z"/>
</mask>
<path fill-rule="evenodd" clip-rule="evenodd" d="M248.134 30.4311C251.595 26.9468 254.562 25.3091 256.365 26.1777C257.617 26.7809 258.278 29.9977 258.055 34.7844C260.407 32.8891 262.393 32.1204 263.725 32.7621C266.702 34.1962 266.249 50.8726 258.101 67.7879C249.952 84.7032 240.355 96.9748 234.217 94.0178C232.542 93.2108 231.667 91.5308 231.446 89.1705C229.327 90.4058 227.368 90.7191 225.668 89.9002C223.927 89.0613 223.023 87.3072 222.802 84.8405C220.652 86.1632 218.666 86.5268 216.95 85.7001C210.812 82.7432 215.418 68.0677 223.567 51.1524C231.715 34.2371 242.29 22.4366 246.458 24.4444C247.453 24.9237 248.065 27.1061 248.134 30.4311Z" fill="white"/>
<path d="M248.134 30.4311L237.13 30.6605L237.67 56.585L255.944 38.1881L248.134 30.4311ZM258.055 34.7844L247.059 34.2702L245.917 58.6975L264.96 43.3558L258.055 34.7844ZM231.446 89.1705L242.405 88.1447L240.798 70.9787L225.903 79.661L231.446 89.1705ZM222.802 84.8405L233.765 83.8594L232.18 66.1463L217.034 75.4659L222.802 84.8405ZM255.944 38.1881C256.568 37.5595 257.081 37.1045 257.474 36.793C257.88 36.4698 258.054 36.3827 257.997 36.4131C257.975 36.4244 257.413 36.7284 256.401 36.8767C255.31 37.0365 253.526 37.0277 251.588 36.0942L261.142 16.2613C255.451 13.5199 250.144 15.6696 247.746 16.931C244.951 18.4016 242.439 20.5458 240.325 22.6742L255.944 38.1881ZM251.588 36.0942C250.182 35.4168 249.2 34.5373 248.571 33.8272C247.949 33.1266 247.58 32.4909 247.378 32.094C246.998 31.3476 246.935 30.8977 246.967 31.0588C247.025 31.3483 247.148 32.3807 247.059 34.2702L269.05 35.2985C269.185 32.4014 269.089 29.4321 268.559 26.7657C268.297 25.4489 267.848 23.7825 267 22.1137C266.22 20.5819 264.51 17.884 261.142 16.2613L251.588 36.0942ZM268.502 22.8456C264.152 20.7497 259.983 21.5764 257.503 22.4803C254.978 23.4006 252.825 24.8628 251.149 26.2129L264.96 43.3558C265.637 42.8107 265.653 42.9409 265.042 43.1634C264.476 43.3696 261.967 44.1328 258.948 42.6785L268.502 22.8456ZM268.017 72.5649C272.638 62.9738 275.119 53.3917 276.017 45.7546C276.461 41.9806 276.563 38.2994 276.174 35.1215C275.983 33.5676 275.622 31.6765 274.858 29.8118C274.229 28.2767 272.535 24.7884 268.502 22.8456L258.948 42.6785C255.66 41.0943 254.603 38.4408 254.487 38.1582C254.237 37.5461 254.265 37.3253 254.323 37.8008C254.431 38.6816 254.469 40.4957 254.153 43.1844C253.532 48.4728 251.713 55.6867 248.184 63.0109L268.017 72.5649ZM229.44 103.934C235.212 106.715 240.808 105.247 244.536 103.277C248.137 101.374 251.209 98.4554 253.711 95.5777C258.806 89.7182 263.74 81.4434 268.017 72.5649L248.184 63.0109C244.313 71.0476 240.374 77.3663 237.099 81.1322C236.313 82.0359 235.646 82.699 235.111 83.1632C234.847 83.3916 234.637 83.5533 234.482 83.6627C234.327 83.7729 234.249 83.8144 234.25 83.8139C234.25 83.8138 234.359 83.7558 234.572 83.6857C234.788 83.6149 235.132 83.5249 235.588 83.4799C236.586 83.3812 237.81 83.5312 238.994 84.1014L229.44 103.934ZM220.487 90.1964C220.9 94.6106 222.929 100.798 229.44 103.934L238.994 84.1014C240.323 84.7418 241.317 85.7738 241.896 86.8089C242.396 87.704 242.419 88.2922 242.405 88.1447L220.487 90.1964ZM225.903 79.661C225.717 79.7696 226.081 79.5116 226.929 79.3973C227.902 79.2662 229.184 79.3763 230.445 79.9837L220.891 99.8166C227.174 102.843 233.188 100.896 236.989 98.6801L225.903 79.661ZM230.445 79.9837C231.761 80.6176 232.737 81.641 233.296 82.6515C233.776 83.5187 233.784 84.0652 233.765 83.8594L211.839 85.8217C212.241 90.3191 214.273 96.6283 220.891 99.8166L230.445 79.9837ZM212.173 95.6166C218.676 98.7492 224.838 96.5117 228.57 94.2151L217.034 75.4659C216.806 75.6061 217.154 75.3354 218.016 75.2009C219.017 75.0448 220.378 75.134 221.727 75.7837L212.173 95.6166ZM213.65 46.3754C209.479 55.0353 205.853 63.8282 204.169 71.2137C203.345 74.8287 202.764 79.0163 203.36 83.0433C203.993 87.3261 206.263 92.7697 212.173 95.6166L221.727 75.7837C224.567 77.1521 225.112 79.6524 225.137 79.8233C225.144 79.8683 225.102 79.5909 225.163 78.8854C225.223 78.2005 225.365 77.2817 225.632 76.1076C226.754 71.1873 229.506 64.1848 233.483 55.9294L213.65 46.3754ZM251.235 14.5279C244.601 11.3321 238.528 14.7213 236.347 16.1138C233.387 18.003 230.624 20.6893 228.197 23.482C223.238 29.1881 218.051 37.2393 213.65 46.3754L233.483 55.9294C237.231 48.1501 241.406 41.8435 244.813 37.9225C246.57 35.9016 247.741 34.9571 248.191 34.6697C249.42 33.8857 246.231 36.5528 241.681 34.3608L251.235 14.5279ZM259.139 30.2018C259.094 28.0357 258.872 25.6472 258.243 23.4019C257.928 22.2774 257.413 20.8285 256.517 19.3663C255.648 17.9468 254.02 15.8693 251.235 14.5279L241.681 34.3608C239.394 33.2591 238.216 31.6342 237.743 30.8626C237.245 30.0483 237.073 29.4427 237.044 29.3393C236.987 29.1363 237.106 29.5015 237.13 30.6605L259.139 30.2018Z" fill="white" mask="url(#path-3-outside-1_22_76)"/>
<path fill-rule="evenodd" clip-rule="evenodd" d="M248.134 30.4313C251.595 26.9469 254.562 25.3091 256.365 26.1777C257.617 26.7809 258.278 29.9976 258.055 34.7841C260.407 32.889 262.393 32.1204 263.725 32.7621C266.702 34.1962 266.249 50.8726 258.1 67.7879C249.952 84.7032 240.355 96.9748 234.217 94.0178C232.541 93.2108 231.667 91.5309 231.446 89.1707C229.327 90.4058 227.368 90.7191 225.668 89.9002C223.927 89.0613 223.023 87.3072 222.802 84.8404C220.652 86.1632 218.666 86.5269 216.95 85.7001C210.812 82.7432 215.418 68.0677 223.567 51.1524C231.715 34.2371 242.29 22.4366 246.458 24.4444C247.453 24.9237 248.065 27.1062 248.134 30.4313Z" fill="#A2C726"/>
<path fill-rule="evenodd" clip-rule="evenodd" d="M241.923 47.5803C243.726 45.6662 245.246 44.7422 246.136 45.1712C246.755 45.469 247.029 47.1663 246.83 49.7137C248.046 48.6643 249.058 48.2201 249.716 48.5369C251.186 49.2451 250.656 58.1147 246.255 67.2506C241.854 76.3865 236.809 83.081 233.778 81.6209C232.951 81.2224 232.542 80.3455 232.473 79.0954C231.386 79.7899 230.397 79.9917 229.557 79.5874C228.697 79.1732 228.275 78.2574 228.209 76.9507C227.104 77.6924 226.099 77.9216 225.252 77.5134C222.221 76.0532 224.801 68.1716 229.202 59.0357C233.603 49.8999 239.131 43.438 241.189 44.4294C241.681 44.6662 241.949 45.8147 241.923 47.5803Z" fill="white"/>
<mask id="path-7-outside-2_22_76" maskUnits="userSpaceOnUse" x="-0.411621" y="0" width="99" height="76" fill="black">
<rect fill="white" x="-0.411621" width="99" height="76"/>
<path fill-rule="evenodd" clip-rule="evenodd" d="M68.9324 47.9307C70.0353 52.6107 71.6954 56.8136 74.1206 59.8414C82.2163 69.949 86.0801 62.9043 87.0001 58.1185C84.2402 45.6755 80.76 27.305 84.0001 19.5C87.2402 11.695 80.5603 11.2178 75.9604 11.0263C73.364 10.8349 68.0729 11.6006 67.6808 16.195C66.8527 23.1734 66.388 36.0142 68.664 46.7317C53.6352 13.3825 26.4273 24.8721 14.5884 34.912C28.1426 55.768 37.8887 67.6916 68.9324 47.9307Z"/>
</mask>
<path fill-rule="evenodd" clip-rule="evenodd" d="M68.9324 47.9307C70.0353 52.6107 71.6954 56.8136 74.1206 59.8414C82.2163 69.949 86.0801 62.9043 87.0001 58.1185C84.2402 45.6755 80.76 27.305 84.0001 19.5C87.2402 11.695 80.5603 11.2178 75.9604 11.0263C73.364 10.8349 68.0729 11.6006 67.6808 16.195C66.8527 23.1734 66.388 36.0142 68.664 46.7317C53.6352 13.3825 26.4273 24.8721 14.5884 34.912C28.1426 55.768 37.8887 67.6916 68.9324 47.9307Z" fill="#A2C726"/>
<path d="M74.1206 59.8414L65.535 66.718L65.535 66.718L74.1206 59.8414ZM68.9324 47.9307L79.6391 45.4076L76.0875 30.3365L63.0255 38.6512L68.9324 47.9307ZM87.0001 58.1185L97.8023 60.195L98.2321 57.9592L97.7391 55.7366L87.0001 58.1185ZM84.0001 19.5L73.8407 15.2825L73.8407 15.2825L84.0001 19.5ZM75.9604 11.0263L75.1516 21.9966L75.3272 22.0095L75.5031 22.0168L75.9604 11.0263ZM67.6808 16.195L78.6041 17.4912L78.6255 17.3111L78.6409 17.1305L67.6808 16.195ZM68.664 46.7317L58.6353 51.2511L79.4241 44.4466L68.664 46.7317ZM14.5884 34.912L7.47376 26.5226L0.0878936 32.7862L5.36505 40.9062L14.5884 34.912ZM82.7061 52.9647C81.7313 51.7477 80.5649 49.3363 79.6391 45.4076L58.2256 50.4538C59.5056 55.8852 61.6595 61.8794 65.535 66.718L82.7061 52.9647ZM76.1978 56.042C76.1682 56.1964 76.1251 56.3639 76.0751 56.5145C76.0236 56.6697 75.9895 56.7324 76.0019 56.7087C76.0092 56.6949 76.123 56.476 76.407 56.1541C76.6938 55.829 77.2525 55.2893 78.1484 54.8202C79.0971 54.3234 80.2392 54.0065 81.4528 54.0001C82.6332 53.9939 83.5001 54.2821 83.9571 54.4891C84.68 54.8165 84.2159 54.8497 82.7061 52.9647L65.535 66.718C68.0731 69.8869 71.1279 72.8299 74.8809 74.5296C79.1263 76.4523 83.9791 76.6007 88.3541 74.3098C92.1519 72.3211 94.3149 69.1521 95.4741 66.9475C96.7019 64.6125 97.4167 62.2009 97.8023 60.195L76.1978 56.042ZM73.8407 15.2825C72.2777 19.0476 71.8198 23.2152 71.7183 26.7625C71.6119 30.4804 71.882 34.456 72.3205 38.3128C73.1976 46.026 74.86 54.1837 76.2611 60.5004L97.7391 55.7366C96.3803 49.6103 94.9226 42.3612 94.1796 35.8272C93.8082 32.5603 93.6432 29.7022 93.7093 27.3917C93.742 26.2478 93.8288 25.3494 93.9396 24.6757C94.0538 23.9816 94.1648 23.7047 94.1595 23.7175L73.8407 15.2825ZM75.5031 22.0168C76.6526 22.0647 77.3628 22.1143 77.8921 22.1981C78.5161 22.2969 78.0576 22.3253 77.2049 21.8068C76.7033 21.5017 75.9981 20.9659 75.3414 20.1034C74.6594 19.2078 74.2087 18.1925 73.9962 17.1885C73.6002 15.3182 74.1998 14.4174 73.8407 15.2825L94.1595 23.7175C95.4204 20.6801 96.4 16.7927 95.5191 12.6319C94.5395 8.0047 91.6613 4.84936 88.6355 3.0094C85.9429 1.37201 83.1545 0.757351 81.3336 0.468954C79.4179 0.165557 77.5683 0.0837351 76.4178 0.0358582L75.5031 22.0168ZM78.6409 17.1305C78.5509 18.1855 78.1033 19.4036 77.2484 20.4364C76.4822 21.362 75.7064 21.7611 75.4013 21.8945C75.0995 22.0264 74.9803 22.0241 75.0928 22.0089C75.1968 21.9949 75.2518 22.004 75.1516 21.9966L76.7693 0.0561197C74.2609 -0.128814 70.3809 0.0783417 66.5867 1.73751C62.346 3.59195 57.3547 7.83061 56.7206 15.2595L78.6409 17.1305ZM79.4241 44.4466C77.4912 35.3449 77.853 23.8216 78.6041 17.4912L56.7574 14.8988C55.8525 22.5251 55.2848 36.6834 57.904 49.0167L79.4241 44.4466ZM21.703 43.3014C26.4897 39.2421 33.7939 35.5241 40.3853 35.5508C43.4079 35.5631 46.3257 36.3453 49.1554 38.3618C52.0644 40.4349 55.479 44.2473 58.6353 51.2511L78.6927 42.2122C74.3346 32.5415 68.7124 25.2841 61.9231 20.4457C55.0545 15.5509 47.6125 13.58 40.4746 13.551C26.7452 13.4953 14.5259 20.542 7.47376 26.5226L21.703 43.3014ZM63.0255 38.6512C48.2444 48.0601 42.0877 47.5289 39.1913 46.4016C37.4172 45.7112 35.3352 44.2517 32.6771 41.242C29.9711 38.1781 27.2133 34.1519 23.8117 28.9178L5.36505 40.9062C8.74057 46.1001 12.2838 51.3854 16.1874 55.8053C20.139 60.2796 24.9751 64.4764 31.2124 66.9038C44.3385 72.0121 58.5767 67.5622 74.8393 57.2101L63.0255 38.6512Z" fill="white" mask="url(#path-7-outside-2_22_76)"/>
<path fill-rule="evenodd" clip-rule="evenodd" d="M142.21 78.1977C142.315 78.3168 142.42 78.4363 142.525 78.5562C155.981 63.1402 175.894 53.3818 198.114 53.3818C238.64 53.3818 271.492 85.8416 271.492 125.883C271.492 137.683 268.639 148.825 263.577 158.672C255.526 177.477 228.707 208.017 210.185 226.318C190.872 245.4 157.689 267.967 143.5 275.5C140.209 273.549 136.551 271.304 132.67 268.86C130.472 223.856 133.895 184.378 137.404 143.921C139.252 122.603 141.124 101.012 142.21 78.1977Z" fill="white"/>
<path fill-rule="evenodd" clip-rule="evenodd" d="M142.21 78.1977C142.315 78.3168 142.42 78.4363 142.525 78.5562C155.981 63.1402 175.894 53.3818 198.114 53.3818C238.64 53.3818 271.492 85.8416 271.492 125.883C271.492 137.683 268.639 148.825 263.577 158.672C255.526 177.477 228.707 208.017 210.185 226.318C190.872 245.4 157.689 267.967 143.5 275.5C140.209 273.549 136.551 271.304 132.67 268.86C130.472 223.856 133.895 184.378 137.404 143.921C139.252 122.603 141.124 101.012 142.21 78.1977Z" fill="#A2C726"/>
<path d="M142.21 78.1977L137.21 77.9597L137.795 65.6498L145.96 74.8812L142.21 78.1977ZM142.525 78.5562L146.296 81.8482L142.525 86.1689L138.754 81.8482L142.525 78.5562ZM263.577 158.672L258.975 156.702L259.044 156.54L259.124 156.383L263.577 158.672ZM210.185 226.318L213.704 229.879L213.704 229.879L210.185 226.318ZM143.5 275.5L145.847 279.922L143.365 281.24L140.947 279.806L143.5 275.5ZM132.67 268.86L130.002 273.095L127.797 271.707L127.67 269.104L132.67 268.86ZM137.404 143.921L142.391 144.353L142.391 144.353L137.404 143.921ZM145.96 74.8812C146.073 75.0086 146.185 75.1363 146.296 75.2642L138.754 81.8482C138.656 81.7364 138.558 81.6251 138.46 81.5142L145.96 74.8812ZM138.754 75.2642C153.127 58.7967 174.399 48.3757 198.114 48.3757V58.3878C177.389 58.3878 158.835 67.4837 146.296 81.8482L138.754 75.2642ZM198.114 48.3757C241.348 48.3757 276.498 83.0203 276.498 125.883H266.486C266.486 88.663 235.932 58.3878 198.114 58.3878V48.3757ZM276.498 125.883C276.498 138.5 273.446 150.424 268.029 160.961L259.124 156.383C263.832 147.226 266.486 136.867 266.486 125.883H276.498ZM268.179 160.642C263.856 170.739 254.745 183.536 244.684 195.851C234.534 208.277 223.076 220.618 213.704 229.879L206.667 222.757C215.816 213.717 227.029 201.638 236.931 189.517C246.923 177.286 255.246 165.411 258.975 156.702L268.179 160.642ZM213.704 229.879C193.994 249.353 160.4 272.196 145.847 279.922L141.153 271.078C154.977 263.739 187.749 241.448 206.667 222.757L213.704 229.879ZM140.947 279.806C137.609 277.827 133.912 275.558 130.002 273.095L135.339 264.624C139.19 267.05 142.808 269.27 146.053 271.194L140.947 279.806ZM127.67 269.104C125.453 223.716 128.91 183.92 132.416 143.488L142.391 144.353C138.881 184.837 135.491 223.996 137.671 268.615L127.67 269.104ZM132.416 143.488C134.266 122.158 136.129 100.662 137.21 77.9597L147.21 78.4356C146.119 101.362 144.238 123.047 142.391 144.353L132.416 143.488Z" fill="#A2C726"/>
<path d="M142.21 78.1977L137.21 77.9597L137.795 65.6498L145.96 74.8812L142.21 78.1977ZM142.525 78.5562L146.296 81.8482L142.525 86.1689L138.754 81.8482L142.525 78.5562ZM263.577 158.672L258.975 156.702L259.044 156.54L259.124 156.383L263.577 158.672ZM210.185 226.318L213.704 229.879L213.704 229.879L210.185 226.318ZM143.5 275.5L145.847 279.922L143.365 281.24L140.947 279.806L143.5 275.5ZM132.67 268.86L130.002 273.095L127.797 271.707L127.67 269.104L132.67 268.86ZM137.404 143.921L142.391 144.353L142.391 144.353L137.404 143.921ZM145.96 74.8812C146.073 75.0086 146.185 75.1363 146.296 75.2642L138.754 81.8482C138.656 81.7364 138.558 81.6251 138.46 81.5142L145.96 74.8812ZM138.754 75.2642C153.127 58.7967 174.399 48.3757 198.114 48.3757V58.3878C177.389 58.3878 158.835 67.4837 146.296 81.8482L138.754 75.2642ZM198.114 48.3757C241.348 48.3757 276.498 83.0203 276.498 125.883H266.486C266.486 88.663 235.932 58.3878 198.114 58.3878V48.3757ZM276.498 125.883C276.498 138.5 273.446 150.424 268.029 160.961L259.124 156.383C263.832 147.226 266.486 136.867 266.486 125.883H276.498ZM268.179 160.642C263.856 170.739 254.745 183.536 244.684 195.851C234.534 208.277 223.076 220.618 213.704 229.879L206.667 222.757C215.816 213.717 227.029 201.638 236.931 189.517C246.923 177.286 255.246 165.411 258.975 156.702L268.179 160.642ZM213.704 229.879C193.994 249.353 160.4 272.196 145.847 279.922L141.153 271.078C154.977 263.739 187.749 241.448 206.667 222.757L213.704 229.879ZM140.947 279.806C137.609 277.827 133.912 275.558 130.002 273.095L135.339 264.624C139.19 267.05 142.808 269.27 146.053 271.194L140.947 279.806ZM127.67 269.104C125.453 223.716 128.91 183.92 132.416 143.488L142.391 144.353C138.881 184.837 135.491 223.996 137.671 268.615L127.67 269.104ZM132.416 143.488C134.266 122.158 136.129 100.662 137.21 77.9597L147.21 78.4356C146.119 101.362 144.238 123.047 142.391 144.353L132.416 143.488Z" fill="white"/>
<path fill-rule="evenodd" clip-rule="evenodd" d="M146.121 79.5454C151.415 85.6933 163.867 103.555 163.867 126.6C163.867 155.952 159.974 174.186 145.828 215.879C140.04 232.939 135.77 252.426 145.717 268.596C145.446 268.759 145.177 268.92 144.911 269.08C131.254 261.742 99.2923 242.419 80.7026 223.829C62.8751 206.001 37.0617 176.251 29.3119 157.932C24.4391 148.339 21.6925 137.484 21.6925 125.988C21.6925 86.981 53.3141 55.3594 92.3212 55.3594C113.709 55.3594 132.876 64.8658 145.828 79.8836C145.925 79.7705 146.023 79.6578 146.121 79.5454Z" fill="#F83B3B"/>
<path d="M120 268.5C106 260.5 88.5 231 67 209L134.5 254L145.5 268.5C144 272.5 141.5 274 136.5 274C131.5 274 124.002 270.787 120 268.5Z" fill="#F83B3B"/>
<path d="M98.0192 112.656C103.43 115.78 113.016 134.378 113.016 134.378C113.016 134.378 92.1172 135.375 86.7064 132.251C81.2955 129.127 79.4416 122.208 82.5656 116.797C85.6895 111.386 92.6084 109.532 98.0192 112.656Z" fill="white"/>
<path d="M73.5 219.5C88.5589 214.808 115 201 128 186.5" stroke="white" stroke-width="10" stroke-linecap="round"/>
<path d="M115.5 181C112.5 183 107.046 187.914 100.759 192.543C97.5784 194.857 92.7884 201.568 99.0752 209.9C105.362 218.231 111.108 216.5 117 214.5C125.532 209.871 133.5 200.5 137 196" stroke="white" stroke-width="10" stroke-linecap="round"/>
<path d="M213.705 216.796C198.801 212.105 168.759 197.228 157.446 180.106" stroke="#A2C726" stroke-width="10" stroke-linecap="round"/>
<path d="M213.705 216.796C198.801 212.105 168.759 197.228 157.446 180.106" stroke="white" stroke-width="10" stroke-linecap="round"/>
<path d="M183.131 181.325C190.138 188.809 189.752 200.555 182.268 207.562C174.785 214.569 163.038 214.183 156.031 206.7C149.024 199.216 143.067 180.694 150.55 173.687C158.034 166.68 176.124 173.842 183.131 181.325Z" fill="#A2C726"/>
<path d="M183.131 181.325C190.138 188.809 189.752 200.555 182.268 207.562C174.785 214.569 163.038 214.183 156.031 206.7C149.024 199.216 143.067 180.694 150.55 173.687C158.034 166.68 176.124 173.842 183.131 181.325Z" fill="white"/>
<path d="M178.331 109.142C184.548 107.307 199.917 105.228 211.658 111.588C223.399 117.947 228.576 129.321 229.698 134.213" stroke="white" stroke-width="6.20845" stroke-linecap="round"/>
<path d="M175.274 128.288C180.084 126.872 191.977 125.266 201.062 130.177C210.148 135.088 214.154 143.872 215.021 147.65" stroke="white" stroke-width="6.20845" stroke-linecap="round"/>
<path opacity="0.5" fill-rule="evenodd" clip-rule="evenodd" d="M41.6927 138.759C41.5251 137.878 41.3762 136.988 41.2466 136.091C38.0537 113.983 47.3877 93.0613 63.7205 81.0167C45.0862 84.4479 32.4272 102.667 35.2724 122.367C36.1305 128.309 38.3034 133.722 41.4369 138.331C41.5197 138.473 41.605 138.615 41.6927 138.759Z" fill="white"/>
</svg>
