<svg width="21" height="24" viewBox="0 0 21 24" fill="none" xmlns="http://www.w3.org/2000/svg">
<ellipse cx="9" cy="6.5" rx="6" ry="6.5" fill="#48742C"/>
<path d="M0.0595224 20.351C-1.24186 25.2163 19.2419 25.2163 17.9405 20.351C16.6391 15.4858 13.1276 12 9 12C4.87239 12 1.36091 15.4858 0.0595224 20.351Z" fill="#48742C"/>
<mask id="path-3-outside-1_540_1056" maskUnits="userSpaceOnUse" x="11" y="14" width="10" height="10" fill="black">
<rect fill="white" x="11" y="14" width="10" height="10"/>
<path fill-rule="evenodd" clip-rule="evenodd" d="M17 16C17 15.4477 16.5523 15 16 15C15.4477 15 15 15.4477 15 16V18H13C12.4477 18 12 18.4477 12 19C12 19.5523 12.4477 20 13 20H15V22C15 22.5523 15.4477 23 16 23C16.5523 23 17 22.5523 17 22V20H19C19.5523 20 20 19.5523 20 19C20 18.4477 19.5523 18 19 18H17V16Z"/>
</mask>
<path fill-rule="evenodd" clip-rule="evenodd" d="M17 16C17 15.4477 16.5523 15 16 15C15.4477 15 15 15.4477 15 16V18H13C12.4477 18 12 18.4477 12 19C12 19.5523 12.4477 20 13 20H15V22C15 22.5523 15.4477 23 16 23C16.5523 23 17 22.5523 17 22V20H19C19.5523 20 20 19.5523 20 19C20 18.4477 19.5523 18 19 18H17V16Z" fill="#48742C"/>
<path d="M15 18V19H16V18H15ZM15 20H16V19H15V20ZM17 20V19H16V20H17ZM17 18H16V19H17V18ZM16 16H18C18 14.8954 17.1046 14 16 14V16ZM16 16V16V14C14.8954 14 14 14.8954 14 16H16ZM16 18V16H14V18H16ZM13 19H15V17H13V19ZM13 19V17C11.8954 17 11 17.8954 11 19H13ZM13 19H11C11 20.1046 11.8954 21 13 21V19ZM15 19H13V21H15V19ZM16 22V20H14V22H16ZM16 22H14C14 23.1046 14.8954 24 16 24V22ZM16 22H16V24C17.1046 24 18 23.1046 18 22H16ZM16 20V22H18V20H16ZM19 19H17V21H19V19ZM19 19V21C20.1046 21 21 20.1046 21 19H19ZM19 19H21C21 17.8954 20.1046 17 19 17V19ZM17 19H19V17H17V19ZM16 16V18H18V16H16Z" fill="#E1F1DD" mask="url(#path-3-outside-1_540_1056)"/>
</svg>
