<svg width="266" height="47" viewBox="0 0 266 47" fill="none" xmlns="http://www.w3.org/2000/svg">
<mask id="path-1-outside-1_457_641" maskUnits="userSpaceOnUse" x="0" y="0" width="266" height="47" fill="black">
<rect fill="white" width="266" height="47"/>
<path d="M32.0802 31.338C32.0802 33.1438 31.6648 34.6999 30.8339 36.0062C30.0407 37.2741 28.7188 38.446 26.8681 39.5218C25.6218 40.2902 24.1677 40.8666 22.5058 41.2508C20.844 41.635 19.1633 41.8271 17.4637 41.8271C15.7263 41.8271 13.5735 41.2508 11.0052 40.0981C9.15457 39.176 7.68159 38.081 6.58629 36.8131C5.52876 35.5452 5 34.162 5 32.6636C5 31.6262 5.22661 30.8769 5.67984 30.4159C6.13306 29.9164 6.86956 29.6667 7.88931 29.6667C8.41808 29.6667 8.96573 29.8972 9.53226 30.3583C10.0988 30.7809 10.4387 31.2035 10.552 31.6262C11.0808 33.2015 12.0061 34.4117 13.328 35.257C14.6499 36.0639 16.2929 36.4673 18.2569 36.4673C20.523 36.4673 22.4114 36.0447 23.9222 35.1994C25.4707 34.3541 26.245 33.2207 26.245 31.7991C26.245 30.4159 25.414 29.1864 23.7522 28.1106C22.0904 27.0348 20.3908 26.2856 18.6534 25.8629C16.1607 25.1713 13.9512 24.3453 12.025 23.3847C10.0233 22.3858 8.53138 21.1563 7.5494 19.6963C6.56741 18.2362 6.07641 16.6994 6.07641 15.0857C6.07641 13.5872 6.58629 12.0696 7.60605 10.5327C8.62581 8.95742 9.83441 7.82399 11.2319 7.1324C11.9872 6.74818 13.2714 6.34476 15.0843 5.92212C16.9349 5.46106 18.2757 5.23053 19.1067 5.23053C20.202 5.23053 21.4106 5.36501 22.7325 5.63396C24.0544 5.90291 25.1308 6.28712 25.9617 6.7866C27.6235 7.74714 28.851 8.61163 29.6442 9.38006C30.4373 10.1485 30.8339 11.109 30.8339 12.2617C30.8339 12.9533 30.5695 13.568 30.0407 14.1059C29.5497 14.6438 28.6811 14.9128 27.4347 14.9128C27.1325 14.9128 26.8304 14.7783 26.5282 14.5093C26.2261 14.2404 25.8484 13.837 25.3952 13.2991C24.7909 12.4922 24.2054 11.9543 23.6389 11.6854C23.0724 11.4933 22.2415 11.2819 21.1462 11.0514C20.0886 10.8209 19.1444 10.7056 18.3135 10.7056C17.4071 10.7056 16.4628 10.8977 15.4808 11.2819C14.4989 11.6661 13.6679 12.2233 12.9881 12.9533C12.346 13.6449 12.025 14.4517 12.025 15.3738C12.025 16.1423 12.3649 16.8146 13.0448 17.391C13.7624 17.9289 14.6122 18.3707 15.5942 18.7165C16.7272 19.1776 17.9547 19.581 19.2766 19.9268C21.014 20.4647 22.4303 20.9642 23.5256 21.4252C24.6587 21.8479 25.754 22.3858 26.8115 23.0389C28.6622 24.1532 30.003 25.3058 30.8339 26.4969C31.6648 27.6495 32.0802 29.2632 32.0802 31.338Z"/>
<path d="M64.5155 33.9315C65.2332 33.9315 65.7619 34.2196 66.1018 34.796C66.4795 35.3339 66.6684 35.9294 66.6684 36.5826C66.6684 37.3894 66.5362 37.9657 66.2718 38.3115C66.0452 38.6189 65.592 38.9455 64.9121 39.2913C63.3258 40.0597 61.3618 40.6745 59.0202 41.1355C56.6785 41.5966 54.1669 41.8271 51.4853 41.8271C48.1239 41.8271 45.65 41.2508 44.0637 40.0981C42.5152 38.9455 41.5521 37.5623 41.1744 35.9486C40.8345 34.2965 40.6645 32.1449 40.6645 29.4938C40.6645 26.6506 40.7778 23.865 41.0045 21.1371C41.2311 18.3707 41.6276 14.8551 42.1942 10.5903C42.4586 8.7461 43.1762 7.42056 44.347 6.61371C45.5178 5.76843 46.802 5.34579 48.1994 5.34579C49.3702 5.34579 51.2776 5.30737 53.9214 5.23053L58.8502 5.17289C60.8897 5.17289 62.3627 5.23053 63.2692 5.34579C64.4022 5.57632 65.2331 5.84527 65.7619 6.15265C66.3284 6.4216 66.6117 6.90187 66.6117 7.59346C66.6117 8.36189 66.3473 9.11111 65.8186 9.84112C65.3276 10.5711 64.5722 10.9361 63.5524 10.9361C62.3816 10.9361 60.7009 10.8593 58.5103 10.7056C56.3197 10.5519 54.6768 10.4751 53.5815 10.4751C52.6372 10.4751 51.7119 10.5327 50.8055 10.648C49.7479 10.7248 48.9926 10.8593 48.5393 11.0514C48.0861 11.2435 47.8217 11.5701 47.7462 12.0312C47.2174 15.9886 46.953 18.9086 46.953 20.7913C47.8217 20.9065 48.6715 20.9642 49.5024 20.9642C50.56 20.9642 51.693 20.9065 52.9016 20.7913C54.1102 20.676 54.8845 20.5992 55.2244 20.5607C57.2262 20.3686 58.9446 20.2726 60.3799 20.2726C61.2108 20.2726 61.834 20.4263 62.2494 20.7336C62.7026 21.041 62.9293 21.4637 62.9293 22.0016C62.9293 22.8468 62.7026 23.5 62.2494 23.9611C61.834 24.4221 61.0786 24.7679 59.9833 24.9984C58.6614 25.2674 57.0184 25.4787 55.0545 25.6324C53.1282 25.7861 51.2398 25.8629 49.3891 25.8629C48.7471 25.8629 47.8595 25.8245 46.7264 25.7477C46.6131 28.0914 46.5565 30.2622 46.5565 32.2601C46.5565 34.9881 48.3316 36.352 51.8819 36.352C53.7703 36.352 55.3377 36.2176 56.5841 35.9486C57.8305 35.6796 59.2657 35.2954 60.8897 34.796C62.4005 34.2196 63.6091 33.9315 64.5155 33.9315Z"/>
<path d="M101.156 38.081C101.194 38.8879 101.1 39.4642 100.873 39.81C100.647 40.1173 100.193 40.4439 99.5135 40.7897C98.4938 41.2892 97.2852 41.6158 95.8877 41.7695C94.528 41.9232 92.7718 42 90.619 42H86.7665C83.4051 42 80.9124 41.4237 79.2883 40.271C77.6643 39.08 76.6445 37.6584 76.229 36.0062C75.8136 34.3541 75.5681 32.2217 75.4925 29.609C75.4548 28.7253 75.4359 27.419 75.4359 25.69C75.4359 21.9247 75.7569 16.8915 76.399 10.5903C76.5878 8.7461 77.2488 7.42056 78.3819 6.61371C79.5149 5.76843 80.7991 5.34579 82.2343 5.34579C83.4051 5.34579 85.3124 5.30737 87.9563 5.23053L92.9417 5.17289C94.9813 5.17289 96.4542 5.23053 97.3607 5.34579C98.4938 5.57632 99.3436 5.84527 99.9101 6.15265C100.477 6.4216 100.779 6.90187 100.817 7.59346C100.817 8.36189 100.571 9.11111 100.08 9.84112C99.5891 10.5711 98.8337 10.9361 97.8139 10.9361C96.6431 10.9361 94.9624 10.8593 92.7718 10.7056C90.5812 10.5519 88.9194 10.4751 87.7863 10.4751C86.7665 10.4751 85.8412 10.5327 85.0103 10.648C83.9528 10.7248 83.1974 10.8593 82.7442 11.0514C82.2909 11.2435 82.0454 11.5701 82.0077 12.0312C81.5922 16.2191 81.4222 19.1391 81.4978 20.7913C82.3665 20.9065 83.2352 20.9642 84.1038 20.9642C84.9725 20.9642 86.1622 20.8873 87.673 20.7336C88.0507 20.6952 88.5228 20.6568 89.0893 20.6184C89.6559 20.58 90.2979 20.5607 91.0155 20.5607C91.431 20.5607 92.0919 20.5992 92.9984 20.676L94.7546 20.7336C96.492 20.7336 97.3607 21.3676 97.3607 22.6355C97.3607 23.4039 97.153 24.0187 96.7375 24.4798C96.3221 24.9408 95.5856 25.2866 94.528 25.5171C93.0928 25.7861 90.77 25.9206 87.5597 25.9206H84.1038C83.3862 25.9206 82.4987 25.8821 81.4411 25.8053C81.4034 26.4969 81.3845 27.4958 81.3845 28.8022C81.3845 30.4927 81.4034 31.6838 81.4411 32.3754C81.5544 35.0649 83.3862 36.4097 86.9365 36.4097C88.1451 36.4097 89.4292 36.4481 90.7889 36.5249L92.8851 36.5826C93.8671 36.5826 94.6791 36.4865 95.3212 36.2944C95.9632 36.0639 96.5864 35.8718 97.1907 35.7181C97.8328 35.526 98.4182 35.4299 98.947 35.4299C99.6646 35.4299 100.212 35.7181 100.59 36.2944C100.968 36.8323 101.156 37.4278 101.156 38.081Z"/>
<path d="M112.576 41.9424C111.707 41.9424 111.046 41.7118 110.593 41.2508C110.14 40.7513 109.913 40.2518 109.913 39.7523C110.14 38.3692 110.272 36.8899 110.31 35.3146C110.348 33.7394 110.367 32.798 110.367 32.4907V30.4159C110.367 28.8406 110.348 27.4574 110.31 26.2664C110.272 25.0369 110.234 23.9995 110.197 23.1542C110.046 19.7731 109.97 17.1412 109.97 15.2586V13.472C110.046 11.6277 110.14 10.014 110.253 8.63084C110.291 8.09294 110.612 7.51661 111.216 6.90187C111.858 6.28712 112.727 5.90291 113.822 5.74922C117.41 5.365 121.867 5.17289 127.193 5.17289H129.006C130.327 5.17289 131.63 5.42264 132.915 5.92212C134.236 6.4216 134.897 7.26687 134.897 8.45794C134.897 9.2648 134.709 9.91796 134.331 10.4174C133.953 10.8785 133.217 11.109 132.121 11.109C131.63 11.109 131.064 11.0706 130.422 10.9938C129.78 10.9169 129.327 10.8593 129.062 10.8209C127.627 10.5903 126.513 10.4751 125.72 10.4751C121.338 10.4751 118.015 10.7824 115.749 11.3972V21.1947C118.317 21.1947 120.999 21.0794 123.793 20.8489C125.833 20.6952 127.155 20.6184 127.759 20.6184C128.628 20.6184 129.364 20.8297 129.969 21.2523C130.611 21.6366 130.932 22.2321 130.932 23.0389C130.932 25.0369 129.591 26.0358 126.909 26.0358C126.267 26.0358 125.304 26.1127 124.02 26.2664C122.585 26.42 121.471 26.4969 120.677 26.4969C120.186 26.4969 119.488 26.4585 118.581 26.3816C117.41 26.3048 116.617 26.2856 116.202 26.324C116.164 27.3229 116.183 28.879 116.259 30.9922L116.315 34.8536C116.315 36.1599 116.296 37.1397 116.259 37.7928C116.221 38.4076 116.107 39.08 115.919 39.81C115.805 40.4247 115.465 40.9434 114.899 41.366C114.332 41.7503 113.558 41.9424 112.576 41.9424Z"/>
<path d="M158.611 5.11526C161.028 5.11526 163.106 5.42264 164.843 6.03738C166.618 6.65213 168.186 7.59346 169.545 8.86137C171.925 11.0514 173.587 13.4528 174.531 16.0654C175.513 18.6397 176.004 21.9439 176.004 25.9782C176.004 26.9772 175.872 27.9185 175.607 28.8022C175.343 29.6475 174.946 30.6848 174.417 31.9143L173.681 33.7586C173.152 35.2186 172.057 36.5826 170.395 37.8505C168.733 39.08 166.864 40.0597 164.786 40.7897C162.709 41.5197 160.821 41.8847 159.121 41.8847C155.646 41.8847 152.606 41.3084 150 40.1558C147.432 38.9647 145.298 37.1012 143.598 34.5654C142.729 33.2207 142.05 31.7222 141.559 30.0701C141.068 28.3795 140.822 26.7658 140.822 25.229C140.822 21.31 141.502 17.9097 142.862 15.028C144.259 12.108 146.185 9.84112 148.64 8.22741C150.038 7.38214 151.7 6.65213 153.626 6.03738C155.59 5.42264 157.252 5.11526 158.611 5.11526ZM146.827 25.229C146.827 27.2269 147.299 29.0903 148.244 30.8193C149.226 32.5099 150.529 33.8546 152.153 34.8536C153.815 35.8525 155.627 36.352 157.591 36.352C161.633 36.352 164.711 35.3146 166.826 33.2399C168.979 31.1651 170.055 28.2451 170.055 24.4798C170.055 21.5597 169.734 19.2544 169.092 17.5639C168.45 15.8733 167.298 14.3557 165.636 13.0109C164.73 12.2425 163.748 11.7046 162.69 11.3972C161.671 11.0514 160.462 10.8785 159.064 10.8785C156.647 10.8785 154.513 11.4933 152.663 12.7227C150.812 13.9522 149.377 15.662 148.357 17.852C147.337 20.0421 146.827 22.501 146.827 25.229Z"/>
<path d="M201.366 5.11526C203.897 5.11526 206.201 5.44185 208.278 6.09502C210.355 6.70976 212.055 7.63188 213.377 8.86137C215.756 11.0514 217.418 13.4528 218.362 16.0654C219.344 18.6397 219.835 21.9439 219.835 25.9782C219.835 26.8235 219.722 27.5919 219.495 28.2835C219.306 28.9751 218.985 29.8588 218.532 30.9346C217.966 32.1257 217.626 33.067 217.512 33.7586C216.757 35.1033 215.511 36.3904 213.773 37.6199C212.074 38.8494 210.223 39.8484 208.221 40.6168C206.22 41.3853 204.463 41.7695 202.953 41.7695C195.663 41.7695 190.47 39.2336 187.373 34.162C186.504 32.7404 185.824 31.2612 185.333 29.7243C184.88 28.1874 184.654 26.689 184.654 25.229C184.654 21.31 185.333 17.9097 186.693 15.028C188.091 12.108 190.017 9.84112 192.472 8.22741C193.945 7.34372 195.474 6.61371 197.061 6.03738C198.685 5.42264 200.12 5.11526 201.366 5.11526ZM190.546 25.4019C190.546 27.4766 190.999 29.1864 191.905 30.5312C192.849 31.8759 194.285 33.3359 196.211 34.9112C197.797 35.526 198.874 35.9294 199.44 36.1215C200.007 36.2752 200.649 36.352 201.366 36.352C205.181 36.352 208.221 35.2954 210.487 33.1822C212.754 31.0691 213.887 28.1682 213.887 24.4798C213.887 21.5597 213.566 19.2544 212.924 17.5639C212.281 15.8733 211.13 14.3557 209.468 13.0109C208.599 12.2809 207.485 11.743 206.125 11.3972C204.803 11.0514 203.368 10.8785 201.82 10.8785C199.478 10.8785 197.457 11.5893 195.758 13.0109C194.058 14.3941 192.755 16.1999 191.849 18.4283C190.98 20.6568 190.546 22.9813 190.546 25.4019Z"/>
<path d="M256.694 12.2041C257.941 13.7025 258.961 15.393 259.754 17.2757C260.585 19.1584 261 21.4252 261 24.0763C261 26.0358 260.547 28.0914 259.64 30.243C258.772 32.3562 257.639 34.0659 256.241 35.3723C254.806 36.7939 253.39 37.9465 251.992 38.8302C250.632 39.7139 248.801 40.4439 246.497 41.0203C244.193 41.5582 241.247 41.8271 237.659 41.8271C235.317 41.8271 233.599 41.4237 232.503 40.6168C231.446 39.81 230.917 38.5997 230.917 36.986C230.917 35.9102 231.068 34.1044 231.37 31.5685C231.673 29.1096 231.824 27.419 231.824 26.4969C231.824 22.8468 231.767 19.7731 231.654 17.2757C231.578 14.7399 231.484 12.4154 231.37 10.3022C230.313 10.3022 229.576 10.0332 229.161 9.49533C228.745 8.95743 228.538 8.40031 228.538 7.82399C228.538 6.90187 228.972 6.21028 229.841 5.74922C230.709 5.24974 232.201 5 234.316 5C239.415 5 243.796 5.48027 247.46 6.44081C251.161 7.40135 254.239 9.32243 256.694 12.2041ZM236.696 36.4097C237.602 36.5633 238.886 36.6402 240.548 36.6402C243.003 36.6402 245.345 36.1215 247.573 35.0841C249.802 34.0083 251.596 32.5291 252.955 30.6464C254.315 28.7253 254.995 26.5161 254.995 24.0187C254.995 21.406 254.542 19.1776 253.635 17.3333C252.766 15.4891 251.369 13.9714 249.443 12.7804C248.083 11.8967 246.402 11.2627 244.401 10.8785C242.399 10.4559 239.963 10.2445 237.092 10.2445C237.092 12.5883 237.13 14.5478 237.206 16.1231L237.319 17.9097C237.47 21.2139 237.546 23.6921 237.546 25.3442C237.546 26.9195 237.451 28.783 237.262 30.9346C237.111 33.0862 236.922 34.9112 236.696 36.4097Z"/>
</mask>
<path d="M32.0802 31.338C32.0802 33.1438 31.6648 34.6999 30.8339 36.0062C30.0407 37.2741 28.7188 38.446 26.8681 39.5218C25.6218 40.2902 24.1677 40.8666 22.5058 41.2508C20.844 41.635 19.1633 41.8271 17.4637 41.8271C15.7263 41.8271 13.5735 41.2508 11.0052 40.0981C9.15457 39.176 7.68159 38.081 6.58629 36.8131C5.52876 35.5452 5 34.162 5 32.6636C5 31.6262 5.22661 30.8769 5.67984 30.4159C6.13306 29.9164 6.86956 29.6667 7.88931 29.6667C8.41808 29.6667 8.96573 29.8972 9.53226 30.3583C10.0988 30.7809 10.4387 31.2035 10.552 31.6262C11.0808 33.2015 12.0061 34.4117 13.328 35.257C14.6499 36.0639 16.2929 36.4673 18.2569 36.4673C20.523 36.4673 22.4114 36.0447 23.9222 35.1994C25.4707 34.3541 26.245 33.2207 26.245 31.7991C26.245 30.4159 25.414 29.1864 23.7522 28.1106C22.0904 27.0348 20.3908 26.2856 18.6534 25.8629C16.1607 25.1713 13.9512 24.3453 12.025 23.3847C10.0233 22.3858 8.53138 21.1563 7.5494 19.6963C6.56741 18.2362 6.07641 16.6994 6.07641 15.0857C6.07641 13.5872 6.58629 12.0696 7.60605 10.5327C8.62581 8.95742 9.83441 7.82399 11.2319 7.1324C11.9872 6.74818 13.2714 6.34476 15.0843 5.92212C16.9349 5.46106 18.2757 5.23053 19.1067 5.23053C20.202 5.23053 21.4106 5.36501 22.7325 5.63396C24.0544 5.90291 25.1308 6.28712 25.9617 6.7866C27.6235 7.74714 28.851 8.61163 29.6442 9.38006C30.4373 10.1485 30.8339 11.109 30.8339 12.2617C30.8339 12.9533 30.5695 13.568 30.0407 14.1059C29.5497 14.6438 28.6811 14.9128 27.4347 14.9128C27.1325 14.9128 26.8304 14.7783 26.5282 14.5093C26.2261 14.2404 25.8484 13.837 25.3952 13.2991C24.7909 12.4922 24.2054 11.9543 23.6389 11.6854C23.0724 11.4933 22.2415 11.2819 21.1462 11.0514C20.0886 10.8209 19.1444 10.7056 18.3135 10.7056C17.4071 10.7056 16.4628 10.8977 15.4808 11.2819C14.4989 11.6661 13.6679 12.2233 12.9881 12.9533C12.346 13.6449 12.025 14.4517 12.025 15.3738C12.025 16.1423 12.3649 16.8146 13.0448 17.391C13.7624 17.9289 14.6122 18.3707 15.5942 18.7165C16.7272 19.1776 17.9547 19.581 19.2766 19.9268C21.014 20.4647 22.4303 20.9642 23.5256 21.4252C24.6587 21.8479 25.754 22.3858 26.8115 23.0389C28.6622 24.1532 30.003 25.3058 30.8339 26.4969C31.6648 27.6495 32.0802 29.2632 32.0802 31.338Z" fill="#F83B3B"/>
<path d="M64.5155 33.9315C65.2332 33.9315 65.7619 34.2196 66.1018 34.796C66.4795 35.3339 66.6684 35.9294 66.6684 36.5826C66.6684 37.3894 66.5362 37.9657 66.2718 38.3115C66.0452 38.6189 65.592 38.9455 64.9121 39.2913C63.3258 40.0597 61.3618 40.6745 59.0202 41.1355C56.6785 41.5966 54.1669 41.8271 51.4853 41.8271C48.1239 41.8271 45.65 41.2508 44.0637 40.0981C42.5152 38.9455 41.5521 37.5623 41.1744 35.9486C40.8345 34.2965 40.6645 32.1449 40.6645 29.4938C40.6645 26.6506 40.7778 23.865 41.0045 21.1371C41.2311 18.3707 41.6276 14.8551 42.1942 10.5903C42.4586 8.7461 43.1762 7.42056 44.347 6.61371C45.5178 5.76843 46.802 5.34579 48.1994 5.34579C49.3702 5.34579 51.2776 5.30737 53.9214 5.23053L58.8502 5.17289C60.8897 5.17289 62.3627 5.23053 63.2692 5.34579C64.4022 5.57632 65.2331 5.84527 65.7619 6.15265C66.3284 6.4216 66.6117 6.90187 66.6117 7.59346C66.6117 8.36189 66.3473 9.11111 65.8186 9.84112C65.3276 10.5711 64.5722 10.9361 63.5524 10.9361C62.3816 10.9361 60.7009 10.8593 58.5103 10.7056C56.3197 10.5519 54.6768 10.4751 53.5815 10.4751C52.6372 10.4751 51.7119 10.5327 50.8055 10.648C49.7479 10.7248 48.9926 10.8593 48.5393 11.0514C48.0861 11.2435 47.8217 11.5701 47.7462 12.0312C47.2174 15.9886 46.953 18.9086 46.953 20.7913C47.8217 20.9065 48.6715 20.9642 49.5024 20.9642C50.56 20.9642 51.693 20.9065 52.9016 20.7913C54.1102 20.676 54.8845 20.5992 55.2244 20.5607C57.2262 20.3686 58.9446 20.2726 60.3799 20.2726C61.2108 20.2726 61.834 20.4263 62.2494 20.7336C62.7026 21.041 62.9293 21.4637 62.9293 22.0016C62.9293 22.8468 62.7026 23.5 62.2494 23.9611C61.834 24.4221 61.0786 24.7679 59.9833 24.9984C58.6614 25.2674 57.0184 25.4787 55.0545 25.6324C53.1282 25.7861 51.2398 25.8629 49.3891 25.8629C48.7471 25.8629 47.8595 25.8245 46.7264 25.7477C46.6131 28.0914 46.5565 30.2622 46.5565 32.2601C46.5565 34.9881 48.3316 36.352 51.8819 36.352C53.7703 36.352 55.3377 36.2176 56.5841 35.9486C57.8305 35.6796 59.2657 35.2954 60.8897 34.796C62.4005 34.2196 63.6091 33.9315 64.5155 33.9315Z" fill="#F83B3B"/>
<path d="M101.156 38.081C101.194 38.8879 101.1 39.4642 100.873 39.81C100.647 40.1173 100.193 40.4439 99.5135 40.7897C98.4938 41.2892 97.2852 41.6158 95.8877 41.7695C94.528 41.9232 92.7718 42 90.619 42H86.7665C83.4051 42 80.9124 41.4237 79.2883 40.271C77.6643 39.08 76.6445 37.6584 76.229 36.0062C75.8136 34.3541 75.5681 32.2217 75.4925 29.609C75.4548 28.7253 75.4359 27.419 75.4359 25.69C75.4359 21.9247 75.7569 16.8915 76.399 10.5903C76.5878 8.7461 77.2488 7.42056 78.3819 6.61371C79.5149 5.76843 80.7991 5.34579 82.2343 5.34579C83.4051 5.34579 85.3124 5.30737 87.9563 5.23053L92.9417 5.17289C94.9813 5.17289 96.4542 5.23053 97.3607 5.34579C98.4938 5.57632 99.3436 5.84527 99.9101 6.15265C100.477 6.4216 100.779 6.90187 100.817 7.59346C100.817 8.36189 100.571 9.11111 100.08 9.84112C99.5891 10.5711 98.8337 10.9361 97.8139 10.9361C96.6431 10.9361 94.9624 10.8593 92.7718 10.7056C90.5812 10.5519 88.9194 10.4751 87.7863 10.4751C86.7665 10.4751 85.8412 10.5327 85.0103 10.648C83.9528 10.7248 83.1974 10.8593 82.7442 11.0514C82.2909 11.2435 82.0454 11.5701 82.0077 12.0312C81.5922 16.2191 81.4222 19.1391 81.4978 20.7913C82.3665 20.9065 83.2352 20.9642 84.1038 20.9642C84.9725 20.9642 86.1622 20.8873 87.673 20.7336C88.0507 20.6952 88.5228 20.6568 89.0893 20.6184C89.6559 20.58 90.2979 20.5607 91.0155 20.5607C91.431 20.5607 92.0919 20.5992 92.9984 20.676L94.7546 20.7336C96.492 20.7336 97.3607 21.3676 97.3607 22.6355C97.3607 23.4039 97.153 24.0187 96.7375 24.4798C96.3221 24.9408 95.5856 25.2866 94.528 25.5171C93.0928 25.7861 90.77 25.9206 87.5597 25.9206H84.1038C83.3862 25.9206 82.4987 25.8821 81.4411 25.8053C81.4034 26.4969 81.3845 27.4958 81.3845 28.8022C81.3845 30.4927 81.4034 31.6838 81.4411 32.3754C81.5544 35.0649 83.3862 36.4097 86.9365 36.4097C88.1451 36.4097 89.4292 36.4481 90.7889 36.5249L92.8851 36.5826C93.8671 36.5826 94.6791 36.4865 95.3212 36.2944C95.9632 36.0639 96.5864 35.8718 97.1907 35.7181C97.8328 35.526 98.4182 35.4299 98.947 35.4299C99.6646 35.4299 100.212 35.7181 100.59 36.2944C100.968 36.8323 101.156 37.4278 101.156 38.081Z" fill="#F83B3B"/>
<path d="M112.576 41.9424C111.707 41.9424 111.046 41.7118 110.593 41.2508C110.14 40.7513 109.913 40.2518 109.913 39.7523C110.14 38.3692 110.272 36.8899 110.31 35.3146C110.348 33.7394 110.367 32.798 110.367 32.4907V30.4159C110.367 28.8406 110.348 27.4574 110.31 26.2664C110.272 25.0369 110.234 23.9995 110.197 23.1542C110.046 19.7731 109.97 17.1412 109.97 15.2586V13.472C110.046 11.6277 110.14 10.014 110.253 8.63084C110.291 8.09294 110.612 7.51661 111.216 6.90187C111.858 6.28712 112.727 5.90291 113.822 5.74922C117.41 5.365 121.867 5.17289 127.193 5.17289H129.006C130.327 5.17289 131.63 5.42264 132.915 5.92212C134.236 6.4216 134.897 7.26687 134.897 8.45794C134.897 9.2648 134.709 9.91796 134.331 10.4174C133.953 10.8785 133.217 11.109 132.121 11.109C131.63 11.109 131.064 11.0706 130.422 10.9938C129.78 10.9169 129.327 10.8593 129.062 10.8209C127.627 10.5903 126.513 10.4751 125.72 10.4751C121.338 10.4751 118.015 10.7824 115.749 11.3972V21.1947C118.317 21.1947 120.999 21.0794 123.793 20.8489C125.833 20.6952 127.155 20.6184 127.759 20.6184C128.628 20.6184 129.364 20.8297 129.969 21.2523C130.611 21.6366 130.932 22.2321 130.932 23.0389C130.932 25.0369 129.591 26.0358 126.909 26.0358C126.267 26.0358 125.304 26.1127 124.02 26.2664C122.585 26.42 121.471 26.4969 120.677 26.4969C120.186 26.4969 119.488 26.4585 118.581 26.3816C117.41 26.3048 116.617 26.2856 116.202 26.324C116.164 27.3229 116.183 28.879 116.259 30.9922L116.315 34.8536C116.315 36.1599 116.296 37.1397 116.259 37.7928C116.221 38.4076 116.107 39.08 115.919 39.81C115.805 40.4247 115.465 40.9434 114.899 41.366C114.332 41.7503 113.558 41.9424 112.576 41.9424Z" fill="#F83B3B"/>
<path d="M158.611 5.11526C161.028 5.11526 163.106 5.42264 164.843 6.03738C166.618 6.65213 168.186 7.59346 169.545 8.86137C171.925 11.0514 173.587 13.4528 174.531 16.0654C175.513 18.6397 176.004 21.9439 176.004 25.9782C176.004 26.9772 175.872 27.9185 175.607 28.8022C175.343 29.6475 174.946 30.6848 174.417 31.9143L173.681 33.7586C173.152 35.2186 172.057 36.5826 170.395 37.8505C168.733 39.08 166.864 40.0597 164.786 40.7897C162.709 41.5197 160.821 41.8847 159.121 41.8847C155.646 41.8847 152.606 41.3084 150 40.1558C147.432 38.9647 145.298 37.1012 143.598 34.5654C142.729 33.2207 142.05 31.7222 141.559 30.0701C141.068 28.3795 140.822 26.7658 140.822 25.229C140.822 21.31 141.502 17.9097 142.862 15.028C144.259 12.108 146.185 9.84112 148.64 8.22741C150.038 7.38214 151.7 6.65213 153.626 6.03738C155.59 5.42264 157.252 5.11526 158.611 5.11526ZM146.827 25.229C146.827 27.2269 147.299 29.0903 148.244 30.8193C149.226 32.5099 150.529 33.8546 152.153 34.8536C153.815 35.8525 155.627 36.352 157.591 36.352C161.633 36.352 164.711 35.3146 166.826 33.2399C168.979 31.1651 170.055 28.2451 170.055 24.4798C170.055 21.5597 169.734 19.2544 169.092 17.5639C168.45 15.8733 167.298 14.3557 165.636 13.0109C164.73 12.2425 163.748 11.7046 162.69 11.3972C161.671 11.0514 160.462 10.8785 159.064 10.8785C156.647 10.8785 154.513 11.4933 152.663 12.7227C150.812 13.9522 149.377 15.662 148.357 17.852C147.337 20.0421 146.827 22.501 146.827 25.229Z" fill="#F83B3B"/>
<path d="M201.366 5.11526C203.897 5.11526 206.201 5.44185 208.278 6.09502C210.355 6.70976 212.055 7.63188 213.377 8.86137C215.756 11.0514 217.418 13.4528 218.362 16.0654C219.344 18.6397 219.835 21.9439 219.835 25.9782C219.835 26.8235 219.722 27.5919 219.495 28.2835C219.306 28.9751 218.985 29.8588 218.532 30.9346C217.966 32.1257 217.626 33.067 217.512 33.7586C216.757 35.1033 215.511 36.3904 213.773 37.6199C212.074 38.8494 210.223 39.8484 208.221 40.6168C206.22 41.3853 204.463 41.7695 202.953 41.7695C195.663 41.7695 190.47 39.2336 187.373 34.162C186.504 32.7404 185.824 31.2612 185.333 29.7243C184.88 28.1874 184.654 26.689 184.654 25.229C184.654 21.31 185.333 17.9097 186.693 15.028C188.091 12.108 190.017 9.84112 192.472 8.22741C193.945 7.34372 195.474 6.61371 197.061 6.03738C198.685 5.42264 200.12 5.11526 201.366 5.11526ZM190.546 25.4019C190.546 27.4766 190.999 29.1864 191.905 30.5312C192.849 31.8759 194.285 33.3359 196.211 34.9112C197.797 35.526 198.874 35.9294 199.44 36.1215C200.007 36.2752 200.649 36.352 201.366 36.352C205.181 36.352 208.221 35.2954 210.487 33.1822C212.754 31.0691 213.887 28.1682 213.887 24.4798C213.887 21.5597 213.566 19.2544 212.924 17.5639C212.281 15.8733 211.13 14.3557 209.468 13.0109C208.599 12.2809 207.485 11.743 206.125 11.3972C204.803 11.0514 203.368 10.8785 201.82 10.8785C199.478 10.8785 197.457 11.5893 195.758 13.0109C194.058 14.3941 192.755 16.1999 191.849 18.4283C190.98 20.6568 190.546 22.9813 190.546 25.4019Z" fill="#F83B3B"/>
<path d="M256.694 12.2041C257.941 13.7025 258.961 15.393 259.754 17.2757C260.585 19.1584 261 21.4252 261 24.0763C261 26.0358 260.547 28.0914 259.64 30.243C258.772 32.3562 257.639 34.0659 256.241 35.3723C254.806 36.7939 253.39 37.9465 251.992 38.8302C250.632 39.7139 248.801 40.4439 246.497 41.0203C244.193 41.5582 241.247 41.8271 237.659 41.8271C235.317 41.8271 233.599 41.4237 232.503 40.6168C231.446 39.81 230.917 38.5997 230.917 36.986C230.917 35.9102 231.068 34.1044 231.37 31.5685C231.673 29.1096 231.824 27.419 231.824 26.4969C231.824 22.8468 231.767 19.7731 231.654 17.2757C231.578 14.7399 231.484 12.4154 231.37 10.3022C230.313 10.3022 229.576 10.0332 229.161 9.49533C228.745 8.95743 228.538 8.40031 228.538 7.82399C228.538 6.90187 228.972 6.21028 229.841 5.74922C230.709 5.24974 232.201 5 234.316 5C239.415 5 243.796 5.48027 247.46 6.44081C251.161 7.40135 254.239 9.32243 256.694 12.2041ZM236.696 36.4097C237.602 36.5633 238.886 36.6402 240.548 36.6402C243.003 36.6402 245.345 36.1215 247.573 35.0841C249.802 34.0083 251.596 32.5291 252.955 30.6464C254.315 28.7253 254.995 26.5161 254.995 24.0187C254.995 21.406 254.542 19.1776 253.635 17.3333C252.766 15.4891 251.369 13.9714 249.443 12.7804C248.083 11.8967 246.402 11.2627 244.401 10.8785C242.399 10.4559 239.963 10.2445 237.092 10.2445C237.092 12.5883 237.13 14.5478 237.206 16.1231L237.319 17.9097C237.47 21.2139 237.546 23.6921 237.546 25.3442C237.546 26.9195 237.451 28.783 237.262 30.9346C237.111 33.0862 236.922 34.9112 236.696 36.4097Z" fill="#F83B3B"/>
<path d="M32.0802 31.338C32.0802 33.1438 31.6648 34.6999 30.8339 36.0062C30.0407 37.2741 28.7188 38.446 26.8681 39.5218C25.6218 40.2902 24.1677 40.8666 22.5058 41.2508C20.844 41.635 19.1633 41.8271 17.4637 41.8271C15.7263 41.8271 13.5735 41.2508 11.0052 40.0981C9.15457 39.176 7.68159 38.081 6.58629 36.8131C5.52876 35.5452 5 34.162 5 32.6636C5 31.6262 5.22661 30.8769 5.67984 30.4159C6.13306 29.9164 6.86956 29.6667 7.88931 29.6667C8.41808 29.6667 8.96573 29.8972 9.53226 30.3583C10.0988 30.7809 10.4387 31.2035 10.552 31.6262C11.0808 33.2015 12.0061 34.4117 13.328 35.257C14.6499 36.0639 16.2929 36.4673 18.2569 36.4673C20.523 36.4673 22.4114 36.0447 23.9222 35.1994C25.4707 34.3541 26.245 33.2207 26.245 31.7991C26.245 30.4159 25.414 29.1864 23.7522 28.1106C22.0904 27.0348 20.3908 26.2856 18.6534 25.8629C16.1607 25.1713 13.9512 24.3453 12.025 23.3847C10.0233 22.3858 8.53138 21.1563 7.5494 19.6963C6.56741 18.2362 6.07641 16.6994 6.07641 15.0857C6.07641 13.5872 6.58629 12.0696 7.60605 10.5327C8.62581 8.95742 9.83441 7.82399 11.2319 7.1324C11.9872 6.74818 13.2714 6.34476 15.0843 5.92212C16.9349 5.46106 18.2757 5.23053 19.1067 5.23053C20.202 5.23053 21.4106 5.36501 22.7325 5.63396C24.0544 5.90291 25.1308 6.28712 25.9617 6.7866C27.6235 7.74714 28.851 8.61163 29.6442 9.38006C30.4373 10.1485 30.8339 11.109 30.8339 12.2617C30.8339 12.9533 30.5695 13.568 30.0407 14.1059C29.5497 14.6438 28.6811 14.9128 27.4347 14.9128C27.1325 14.9128 26.8304 14.7783 26.5282 14.5093C26.2261 14.2404 25.8484 13.837 25.3952 13.2991C24.7909 12.4922 24.2054 11.9543 23.6389 11.6854C23.0724 11.4933 22.2415 11.2819 21.1462 11.0514C20.0886 10.8209 19.1444 10.7056 18.3135 10.7056C17.4071 10.7056 16.4628 10.8977 15.4808 11.2819C14.4989 11.6661 13.6679 12.2233 12.9881 12.9533C12.346 13.6449 12.025 14.4517 12.025 15.3738C12.025 16.1423 12.3649 16.8146 13.0448 17.391C13.7624 17.9289 14.6122 18.3707 15.5942 18.7165C16.7272 19.1776 17.9547 19.581 19.2766 19.9268C21.014 20.4647 22.4303 20.9642 23.5256 21.4252C24.6587 21.8479 25.754 22.3858 26.8115 23.0389C28.6622 24.1532 30.003 25.3058 30.8339 26.4969C31.6648 27.6495 32.0802 29.2632 32.0802 31.338Z" stroke="white" stroke-width="10" mask="url(#path-1-outside-1_457_641)"/>
<path d="M64.5155 33.9315C65.2332 33.9315 65.7619 34.2196 66.1018 34.796C66.4795 35.3339 66.6684 35.9294 66.6684 36.5826C66.6684 37.3894 66.5362 37.9657 66.2718 38.3115C66.0452 38.6189 65.592 38.9455 64.9121 39.2913C63.3258 40.0597 61.3618 40.6745 59.0202 41.1355C56.6785 41.5966 54.1669 41.8271 51.4853 41.8271C48.1239 41.8271 45.65 41.2508 44.0637 40.0981C42.5152 38.9455 41.5521 37.5623 41.1744 35.9486C40.8345 34.2965 40.6645 32.1449 40.6645 29.4938C40.6645 26.6506 40.7778 23.865 41.0045 21.1371C41.2311 18.3707 41.6276 14.8551 42.1942 10.5903C42.4586 8.7461 43.1762 7.42056 44.347 6.61371C45.5178 5.76843 46.802 5.34579 48.1994 5.34579C49.3702 5.34579 51.2776 5.30737 53.9214 5.23053L58.8502 5.17289C60.8897 5.17289 62.3627 5.23053 63.2692 5.34579C64.4022 5.57632 65.2331 5.84527 65.7619 6.15265C66.3284 6.4216 66.6117 6.90187 66.6117 7.59346C66.6117 8.36189 66.3473 9.11111 65.8186 9.84112C65.3276 10.5711 64.5722 10.9361 63.5524 10.9361C62.3816 10.9361 60.7009 10.8593 58.5103 10.7056C56.3197 10.5519 54.6768 10.4751 53.5815 10.4751C52.6372 10.4751 51.7119 10.5327 50.8055 10.648C49.7479 10.7248 48.9926 10.8593 48.5393 11.0514C48.0861 11.2435 47.8217 11.5701 47.7462 12.0312C47.2174 15.9886 46.953 18.9086 46.953 20.7913C47.8217 20.9065 48.6715 20.9642 49.5024 20.9642C50.56 20.9642 51.693 20.9065 52.9016 20.7913C54.1102 20.676 54.8845 20.5992 55.2244 20.5607C57.2262 20.3686 58.9446 20.2726 60.3799 20.2726C61.2108 20.2726 61.834 20.4263 62.2494 20.7336C62.7026 21.041 62.9293 21.4637 62.9293 22.0016C62.9293 22.8468 62.7026 23.5 62.2494 23.9611C61.834 24.4221 61.0786 24.7679 59.9833 24.9984C58.6614 25.2674 57.0184 25.4787 55.0545 25.6324C53.1282 25.7861 51.2398 25.8629 49.3891 25.8629C48.7471 25.8629 47.8595 25.8245 46.7264 25.7477C46.6131 28.0914 46.5565 30.2622 46.5565 32.2601C46.5565 34.9881 48.3316 36.352 51.8819 36.352C53.7703 36.352 55.3377 36.2176 56.5841 35.9486C57.8305 35.6796 59.2657 35.2954 60.8897 34.796C62.4005 34.2196 63.6091 33.9315 64.5155 33.9315Z" stroke="white" stroke-width="10" mask="url(#path-1-outside-1_457_641)"/>
<path d="M101.156 38.081C101.194 38.8879 101.1 39.4642 100.873 39.81C100.647 40.1173 100.193 40.4439 99.5135 40.7897C98.4938 41.2892 97.2852 41.6158 95.8877 41.7695C94.528 41.9232 92.7718 42 90.619 42H86.7665C83.4051 42 80.9124 41.4237 79.2883 40.271C77.6643 39.08 76.6445 37.6584 76.229 36.0062C75.8136 34.3541 75.5681 32.2217 75.4925 29.609C75.4548 28.7253 75.4359 27.419 75.4359 25.69C75.4359 21.9247 75.7569 16.8915 76.399 10.5903C76.5878 8.7461 77.2488 7.42056 78.3819 6.61371C79.5149 5.76843 80.7991 5.34579 82.2343 5.34579C83.4051 5.34579 85.3124 5.30737 87.9563 5.23053L92.9417 5.17289C94.9813 5.17289 96.4542 5.23053 97.3607 5.34579C98.4938 5.57632 99.3436 5.84527 99.9101 6.15265C100.477 6.4216 100.779 6.90187 100.817 7.59346C100.817 8.36189 100.571 9.11111 100.08 9.84112C99.5891 10.5711 98.8337 10.9361 97.8139 10.9361C96.6431 10.9361 94.9624 10.8593 92.7718 10.7056C90.5812 10.5519 88.9194 10.4751 87.7863 10.4751C86.7665 10.4751 85.8412 10.5327 85.0103 10.648C83.9528 10.7248 83.1974 10.8593 82.7442 11.0514C82.2909 11.2435 82.0454 11.5701 82.0077 12.0312C81.5922 16.2191 81.4222 19.1391 81.4978 20.7913C82.3665 20.9065 83.2352 20.9642 84.1038 20.9642C84.9725 20.9642 86.1622 20.8873 87.673 20.7336C88.0507 20.6952 88.5228 20.6568 89.0893 20.6184C89.6559 20.58 90.2979 20.5607 91.0155 20.5607C91.431 20.5607 92.0919 20.5992 92.9984 20.676L94.7546 20.7336C96.492 20.7336 97.3607 21.3676 97.3607 22.6355C97.3607 23.4039 97.153 24.0187 96.7375 24.4798C96.3221 24.9408 95.5856 25.2866 94.528 25.5171C93.0928 25.7861 90.77 25.9206 87.5597 25.9206H84.1038C83.3862 25.9206 82.4987 25.8821 81.4411 25.8053C81.4034 26.4969 81.3845 27.4958 81.3845 28.8022C81.3845 30.4927 81.4034 31.6838 81.4411 32.3754C81.5544 35.0649 83.3862 36.4097 86.9365 36.4097C88.1451 36.4097 89.4292 36.4481 90.7889 36.5249L92.8851 36.5826C93.8671 36.5826 94.6791 36.4865 95.3212 36.2944C95.9632 36.0639 96.5864 35.8718 97.1907 35.7181C97.8328 35.526 98.4182 35.4299 98.947 35.4299C99.6646 35.4299 100.212 35.7181 100.59 36.2944C100.968 36.8323 101.156 37.4278 101.156 38.081Z" stroke="white" stroke-width="10" mask="url(#path-1-outside-1_457_641)"/>
<path d="M112.576 41.9424C111.707 41.9424 111.046 41.7118 110.593 41.2508C110.14 40.7513 109.913 40.2518 109.913 39.7523C110.14 38.3692 110.272 36.8899 110.31 35.3146C110.348 33.7394 110.367 32.798 110.367 32.4907V30.4159C110.367 28.8406 110.348 27.4574 110.31 26.2664C110.272 25.0369 110.234 23.9995 110.197 23.1542C110.046 19.7731 109.97 17.1412 109.97 15.2586V13.472C110.046 11.6277 110.14 10.014 110.253 8.63084C110.291 8.09294 110.612 7.51661 111.216 6.90187C111.858 6.28712 112.727 5.90291 113.822 5.74922C117.41 5.365 121.867 5.17289 127.193 5.17289H129.006C130.327 5.17289 131.63 5.42264 132.915 5.92212C134.236 6.4216 134.897 7.26687 134.897 8.45794C134.897 9.2648 134.709 9.91796 134.331 10.4174C133.953 10.8785 133.217 11.109 132.121 11.109C131.63 11.109 131.064 11.0706 130.422 10.9938C129.78 10.9169 129.327 10.8593 129.062 10.8209C127.627 10.5903 126.513 10.4751 125.72 10.4751C121.338 10.4751 118.015 10.7824 115.749 11.3972V21.1947C118.317 21.1947 120.999 21.0794 123.793 20.8489C125.833 20.6952 127.155 20.6184 127.759 20.6184C128.628 20.6184 129.364 20.8297 129.969 21.2523C130.611 21.6366 130.932 22.2321 130.932 23.0389C130.932 25.0369 129.591 26.0358 126.909 26.0358C126.267 26.0358 125.304 26.1127 124.02 26.2664C122.585 26.42 121.471 26.4969 120.677 26.4969C120.186 26.4969 119.488 26.4585 118.581 26.3816C117.41 26.3048 116.617 26.2856 116.202 26.324C116.164 27.3229 116.183 28.879 116.259 30.9922L116.315 34.8536C116.315 36.1599 116.296 37.1397 116.259 37.7928C116.221 38.4076 116.107 39.08 115.919 39.81C115.805 40.4247 115.465 40.9434 114.899 41.366C114.332 41.7503 113.558 41.9424 112.576 41.9424Z" stroke="white" stroke-width="10" mask="url(#path-1-outside-1_457_641)"/>
<path d="M158.611 5.11526C161.028 5.11526 163.106 5.42264 164.843 6.03738C166.618 6.65213 168.186 7.59346 169.545 8.86137C171.925 11.0514 173.587 13.4528 174.531 16.0654C175.513 18.6397 176.004 21.9439 176.004 25.9782C176.004 26.9772 175.872 27.9185 175.607 28.8022C175.343 29.6475 174.946 30.6848 174.417 31.9143L173.681 33.7586C173.152 35.2186 172.057 36.5826 170.395 37.8505C168.733 39.08 166.864 40.0597 164.786 40.7897C162.709 41.5197 160.821 41.8847 159.121 41.8847C155.646 41.8847 152.606 41.3084 150 40.1558C147.432 38.9647 145.298 37.1012 143.598 34.5654C142.729 33.2207 142.05 31.7222 141.559 30.0701C141.068 28.3795 140.822 26.7658 140.822 25.229C140.822 21.31 141.502 17.9097 142.862 15.028C144.259 12.108 146.185 9.84112 148.64 8.22741C150.038 7.38214 151.7 6.65213 153.626 6.03738C155.59 5.42264 157.252 5.11526 158.611 5.11526ZM146.827 25.229C146.827 27.2269 147.299 29.0903 148.244 30.8193C149.226 32.5099 150.529 33.8546 152.153 34.8536C153.815 35.8525 155.627 36.352 157.591 36.352C161.633 36.352 164.711 35.3146 166.826 33.2399C168.979 31.1651 170.055 28.2451 170.055 24.4798C170.055 21.5597 169.734 19.2544 169.092 17.5639C168.45 15.8733 167.298 14.3557 165.636 13.0109C164.73 12.2425 163.748 11.7046 162.69 11.3972C161.671 11.0514 160.462 10.8785 159.064 10.8785C156.647 10.8785 154.513 11.4933 152.663 12.7227C150.812 13.9522 149.377 15.662 148.357 17.852C147.337 20.0421 146.827 22.501 146.827 25.229Z" stroke="white" stroke-width="10" mask="url(#path-1-outside-1_457_641)"/>
<path d="M201.366 5.11526C203.897 5.11526 206.201 5.44185 208.278 6.09502C210.355 6.70976 212.055 7.63188 213.377 8.86137C215.756 11.0514 217.418 13.4528 218.362 16.0654C219.344 18.6397 219.835 21.9439 219.835 25.9782C219.835 26.8235 219.722 27.5919 219.495 28.2835C219.306 28.9751 218.985 29.8588 218.532 30.9346C217.966 32.1257 217.626 33.067 217.512 33.7586C216.757 35.1033 215.511 36.3904 213.773 37.6199C212.074 38.8494 210.223 39.8484 208.221 40.6168C206.22 41.3853 204.463 41.7695 202.953 41.7695C195.663 41.7695 190.47 39.2336 187.373 34.162C186.504 32.7404 185.824 31.2612 185.333 29.7243C184.88 28.1874 184.654 26.689 184.654 25.229C184.654 21.31 185.333 17.9097 186.693 15.028C188.091 12.108 190.017 9.84112 192.472 8.22741C193.945 7.34372 195.474 6.61371 197.061 6.03738C198.685 5.42264 200.12 5.11526 201.366 5.11526ZM190.546 25.4019C190.546 27.4766 190.999 29.1864 191.905 30.5312C192.849 31.8759 194.285 33.3359 196.211 34.9112C197.797 35.526 198.874 35.9294 199.44 36.1215C200.007 36.2752 200.649 36.352 201.366 36.352C205.181 36.352 208.221 35.2954 210.487 33.1822C212.754 31.0691 213.887 28.1682 213.887 24.4798C213.887 21.5597 213.566 19.2544 212.924 17.5639C212.281 15.8733 211.13 14.3557 209.468 13.0109C208.599 12.2809 207.485 11.743 206.125 11.3972C204.803 11.0514 203.368 10.8785 201.82 10.8785C199.478 10.8785 197.457 11.5893 195.758 13.0109C194.058 14.3941 192.755 16.1999 191.849 18.4283C190.98 20.6568 190.546 22.9813 190.546 25.4019Z" stroke="white" stroke-width="10" mask="url(#path-1-outside-1_457_641)"/>
<path d="M256.694 12.2041C257.941 13.7025 258.961 15.393 259.754 17.2757C260.585 19.1584 261 21.4252 261 24.0763C261 26.0358 260.547 28.0914 259.64 30.243C258.772 32.3562 257.639 34.0659 256.241 35.3723C254.806 36.7939 253.39 37.9465 251.992 38.8302C250.632 39.7139 248.801 40.4439 246.497 41.0203C244.193 41.5582 241.247 41.8271 237.659 41.8271C235.317 41.8271 233.599 41.4237 232.503 40.6168C231.446 39.81 230.917 38.5997 230.917 36.986C230.917 35.9102 231.068 34.1044 231.37 31.5685C231.673 29.1096 231.824 27.419 231.824 26.4969C231.824 22.8468 231.767 19.7731 231.654 17.2757C231.578 14.7399 231.484 12.4154 231.37 10.3022C230.313 10.3022 229.576 10.0332 229.161 9.49533C228.745 8.95743 228.538 8.40031 228.538 7.82399C228.538 6.90187 228.972 6.21028 229.841 5.74922C230.709 5.24974 232.201 5 234.316 5C239.415 5 243.796 5.48027 247.46 6.44081C251.161 7.40135 254.239 9.32243 256.694 12.2041ZM236.696 36.4097C237.602 36.5633 238.886 36.6402 240.548 36.6402C243.003 36.6402 245.345 36.1215 247.573 35.0841C249.802 34.0083 251.596 32.5291 252.955 30.6464C254.315 28.7253 254.995 26.5161 254.995 24.0187C254.995 21.406 254.542 19.1776 253.635 17.3333C252.766 15.4891 251.369 13.9714 249.443 12.7804C248.083 11.8967 246.402 11.2627 244.401 10.8785C242.399 10.4559 239.963 10.2445 237.092 10.2445C237.092 12.5883 237.13 14.5478 237.206 16.1231L237.319 17.9097C237.47 21.2139 237.546 23.6921 237.546 25.3442C237.546 26.9195 237.451 28.783 237.262 30.9346C237.111 33.0862 236.922 34.9112 236.696 36.4097Z" stroke="white" stroke-width="10" mask="url(#path-1-outside-1_457_641)"/>
</svg>
